<svg xmlns="http://www.w3.org/2000/svg" viewBox="0 0 64 64" role="img" aria-labelledby="title desc">
  <title id="title">Designed by Anthony favicon</title>
  <desc id="desc">A dark rounded-square icon with the branded Designed by Anthony D mark in a cyan to blue gradient.</desc>
  <defs>
    <linearGradient id="bg" x1="8" x2="56" y1="6" y2="58" gradientUnits="userSpaceOnUse">
      <stop offset="0%" stop-color="#08111f" />
      <stop offset="100%" stop-color="#111827" />
    </linearGradient>
    <linearGradient id="bgStroke" x1="10" x2="54" y1="10" y2="54" gradientUnits="userSpaceOnUse">
      <stop offset="0%" stop-color="#1d4ed8" stop-opacity="0.28" />
      <stop offset="100%" stop-color="#22d3ee" stop-opacity="0.18" />
    </linearGradient>
    <linearGradient id="mark" x1="24" x2="42" y1="11" y2="53" gradientUnits="userSpaceOnUse">
      <stop offset="0%" stop-color="#17ead9" />
      <stop offset="100%" stop-color="#6078ea" />
    </linearGradient>
  </defs>

  <rect x="4" y="4" width="56" height="56" rx="15" fill="url(#bg)" />
  <rect x="4.75" y="4.75" width="54.5" height="54.5" rx="14.25" fill="none" stroke="url(#bgStroke)" stroke-width="1.5" />

  <path
    fill="url(#mark)"
    d="M 19 -53.2 L 7.6 -53.2 L 7.6 0 L 19 0 C 26.22 0 31.92 -2.13 31.92 -12.16 L 31.92 -41.04 C 31.92 -51.22 26.22 -53.2 19 -53.2 Z M 12.92 -48.64 L 19 -48.64 C 23.64 -48.64 26.6 -47.2 26.6 -40.28 L 26.6 -12.92 C 26.6 -6 23.64 -4.56 19 -4.56 L 12.92 -4.56 Z"
    transform="translate(21.943 10) scale(0.8271) translate(-7.6 53.2)"
  />
</svg>
